<svg width="93.3333" height="93.3333" xmlns="http://www.w3.org/2000/svg"><path d="M80 70V0H40.976L16.6667 24.3093V70H20V25.6907L42.3573 3.3333h10.976V70h3.3334V3.3333h20V70zM46.6667 20H40v3.3333h6.6667zM70 10h-6.6667v3.3333H70zm0 10h-6.6667v3.3333H70zm0 10h-6.6667v3.3333H70zm0 10h-6.6667v3.3333H70zm0 10h-6.6667v3.3333H70zm-6.6667 13.3333H70V60h-6.6667zm-23.3333 0h6.6667V60H40zm-13.3333 0h6.6666V60h-6.6666zm20-13.3333H40v3.3333h6.6667zm-13.3334 0h-6.6666v3.3333h6.6666zm13.3334-10H40v3.3333h6.6667zm-13.3334 0h-6.6666v3.3333h6.6666zm13.3334-10H40v3.3333h6.6667zm-13.3334 0h-6.6666v3.3333h6.6666zm13.3334 50h-3.3334v6.6667h3.3334zM30 80h-3.3333v6.6667H30zM0 93.3333h93.3333V90H0zm83.3333-20v3.3334H80v10h-3.3333v-10h-20v10h-3.3334v-10H20v10h-3.3333v-10h-3.3334v-3.3334z" fill="#333"/></svg>