<svg width="97.348" height="90.512" xmlns="http://www.w3.org/2000/svg"><path d="M4.0147 87.1787H97.348v3.3333H4.0147zm76.6666-3.3334v-20h-6.6666v20h-3.3334V60.512h13.3334v23.3333zm-40-26.6666h6.6667V70.512h-6.6667zM37.348 73.8453h13.3333v-20H37.348zM20.6813 57.1787h6.6667V70.512h-6.6667zM17.348 73.8453h13.3333v-20H17.348zm30-33.3333h-6.6667v-6.6667h6.6667zm3.3333-10H37.348v13.3333h13.3333zm-23.3333 10h-6.6667v-6.6667h6.6667zm3.3333-10H17.348v13.3333h13.3333zm63.3334 20H60.6813v-10h33.3334zM60.6813 26.8133l5.2014 4.38 2.1466-2.5493L34.0147 0 0 28.644l2.1467 2.5493 5.2013-4.38v57.032h3.3333V24.0067L34.0147 4.3573 57.348 24.0067v59.8386h3.3333v-30h30v30h3.3334v-30h3.3333V37.1787H60.6813z" fill="#333"/></svg>