<?xml version="1.0" encoding="UTF-8" standalone="no"?>
<!-- Created with Inkscape (http://www.inkscape.org/) -->

<svg
   version="1.1"
   id="svg9"
   xml:space="preserve"
   width="800"
   height="600"
   viewBox="0 0 800 600"
   xmlns="http://www.w3.org/2000/svg"
   xmlns:svg="http://www.w3.org/2000/svg"><defs
     id="defs13"><clipPath
       clipPathUnits="userSpaceOnUse"
       id="clipPath35"><path
         d="M 0,450 H 600 V 0 H 0 Z"
         id="path33" /></clipPath></defs><g
     id="g15"
     transform="matrix(1.3333333,0,0,-1.3333333,0,599.99999)"
     style="display:inline"><path
       d="M 0,0 H 600 V 450 H 0 Z"
       style="fill:#ffffff;fill-opacity:1;fill-rule:nonzero;stroke:none"
       id="path17" /><path
       d="m 526.25,78.75 v 2.5 h 2.422 v 2.5 h -2.422 v 2.5 h -2.5 v -2.5 h -2.578 v -2.5 h 2.578 v -2.5 z m 18.75,-40 h 2.5 v 5 H 545 Z m 2.5,15 H 545 v -5 h 2.5 z m 5,-15 h 2.5 v 5 h -2.5 z m 7.5,0 h 2.5 v 5 H 560 Z m -5,15 h -2.5 v -5 h 2.5 z m 7.5,0 H 560 v -5 h 2.5 z m -30,12.5 h -5 v -2.5 h 5 z m -10,0 h -5 v -2.5 h 5 z m 10,-7.5 h -5 v -2.5 h 5 z m -10,0 h -5 v -2.5 h 5 z m 10,-7.5 h -5 v -2.5 h 5 z m -10,0 h -5 v -2.5 h 5 z m 5,-10 h 5 v 2.5 h -5 z m -10,0 h 5 v 2.5 h -5 z m -5,50 v -2.5 h 2.5 v -12.5 h 2.5 v 12.5 h 15 v -12.5 h 2.5 v 12.5 h 2.5 v 2.5 z m 7.5,2.5 h 10 v 2.5 h -10 z m -12.5,-60 h 2.5 v -5 h 2.5 v 5 h 25 v -5 h 2.5 v 5 h 2.5 v 2.5 h -35 z m 62.5,-5 v 30 h 2.5 v 2.5 h -30 v -2.5 h 25 v -30 z m -62.5,45 v -2.5 h 2.5 v -32.5 h 2.5 v 32.5 h 25 v -32.5 h 2.5 v 32.5 h 2.5 v 2.5 z M 505,26.25 h 70 v -2.5 h -70 z"
       style="fill:#333333;fill-opacity:1;fill-rule:nonzero;stroke:none"
       id="path21" /><path
       d="M 62.5,382.259 H 65 v 5 h -2.5 z m -7.5,0 h 2.5 v 5 H 55 Z m 12.5,0 H 70 v 5 h -2.5 z m -17.5,0 h 2.5 v 5 H 50 Z m 15,15 h -2.5 v -5 H 65 Z m -7.5,0 H 55 v -5 h 2.5 z m 12.5,0 h -2.5 v -5 H 70 Z m -17.5,0 H 50 v -5 h 2.5 z m 12.5,10 h -2.5 v -5 H 65 Z m -7.5,0 H 55 v -5 h 2.5 z m 12.5,0 h -2.5 v -5 H 70 Z m -17.5,0 H 50 v -5 h 2.5 z m 42.5,-50 H 25 v -2.5 h 70 z m -33.75,10 h -2.5 v -7.5 h 2.5 z m 8.75,0 h -2.5 v -7.5 H 70 Z m -17.5,0 H 50 v -7.5 h 2.5 z m 20,55 h -25 v -2.5 h 25 z m -27.5,-7.5 h 30 v -40 h 2.5 v 42.5 h -35 v -42.5 H 45 Z m -2.5,-45 H 40 v 2.5 h 40 v -2.5 h -2.5 v -10 H 75 v 10 H 45 v -10 h -2.5 z"
       style="fill:#333333;fill-opacity:1;fill-rule:nonzero;stroke:none"
       id="path23" /><path
       d="m 234.5,257.5 h 2.5 v 5 h -2.5 z m 7.5,0 h 2.5 v 5 H 242 Z m 7.5,0 h 2.5 v 5 h -2.5 z m 7.5,0 h 2.5 v 5 H 257 Z m 7.5,0 h 2.5 v 5 h -2.5 z m -37.5,0 h 2.5 v 5 H 227 Z m 10,15 h -2.5 v -5 h 2.5 z m 7.5,0 H 242 v -5 h 2.5 z m 7.5,0 h -2.5 v -5 h 2.5 z m 7.5,0 H 257 v -5 h 2.5 z m 7.5,0 h -2.5 v -5 h 2.5 z m -37.5,0 H 227 v -5 h 2.5 z M 252,315 h -20 v -2.5 h 20 z m 27.5,-30 h -15 v -2.5 h 15 z M 227,282.5 h 2.5 v 25 h 15 v -25 h 2.5 v 25 h 10 v -25 h 2.5 V 310 H 227 Z M 217,280 v -2.5 h 2.5 V 250 h 2.5 v 27.5 h 50 V 250 h 2.5 v 27.5 H 282 V 250 h 2.5 v 27.5 h 2.5 v 2.5 z m 0,-32.5 h 70 V 245 h -70 z"
       style="fill:#333333;fill-opacity:1;fill-rule:nonzero;stroke:none"
       id="path25" /><path
       d="m 269.5,51.184 h 2.5 v 5 h -2.5 z m -7.5,0 h 2.5 v 5 H 262 Z m 10,15 h -2.5 v -5 h 2.5 z m -7.5,0 H 262 v -5 h 2.5 z M 237,51.25 h 2.5 v 5 H 237 Z m -7.5,0 h 2.5 v 5 h -2.5 z m 10,15 H 237 v -5 h 2.5 z m -7.5,0 h -2.5 v -5 h 2.5 z m 40,-37.5 v 7.5 h -10 v -7.5 h 2.5 v 5 h 5 v -5 z m -32.5,0 v 7.5 h -10 v -7.5 h 2.5 v 5 h 5 v -5 z m 40,17.5 v 25 h 2.5 v 2.5 h -30 v -2.5 h 2.5 v -25 h 2.5 v 25 h 20 v -25 z m -32.5,0 v 25 h 2.5 v 2.5 h -30 v -2.5 h 2.5 v -25 h 2.5 v 25 h 20 v -25 z m 5,-5 h 2.5 v -12.5 h 2.5 v 12.5 h 20 v -12.5 h 2.5 v 12.5 h 2.5 v 2.5 h -30 z m -32.5,0 h 2.5 v -12.5 h 2.5 v 12.5 h 20 v -12.5 h 2.5 v 12.5 h 2.5 v 2.5 h -30 z m -2.5,-15 h 70 v -2.5 h -70 z"
       style="fill:#333333;fill-opacity:1;fill-rule:nonzero;stroke:none"
       id="path27" /><path
       d="m 75,33.75 h 2.5 v 5 H 75 Z m 7.5,0 H 85 v 5 h -2.5 z m -7.5,10 h 2.5 v 5 H 75 Z m 10,5 h -2.5 v -5 H 85 Z m -10,5 h 2.5 v 5 H 75 Z m 10,5 h -2.5 v -5 H 85 Z m -20,20 h -2.5 v -5 H 65 Z m -7.5,0 H 55 v -5 h 2.5 z m 7.5,-10 h -2.5 v -5 H 65 Z m -7.5,0 H 55 v -5 h 2.5 z m -7.5,0 h -2.5 v -5 H 50 Z m 15,-10 h -2.5 v -5 H 65 Z m -7.5,0 H 55 v -5 h 2.5 z m -7.5,0 h -2.5 v -5 H 50 Z m 15,-10 h -2.5 v -5 H 65 Z m -7.5,0 H 55 v -5 h 2.5 z m -7.5,0 h -2.5 v -5 H 50 Z m 12.5,-15 H 65 v 5 h -2.5 z m -7.5,0 h 2.5 v 5 H 55 Z m -7.5,0 H 50 v 5 h -2.5 z m -10,15 v 2.5 h -10 V 28.75 H 30 v 20 z m 55,-20 v 37.5 H 75 v -2.5 h 15 v -35 z m -20,0 v 65 H 71.25 C 54.019,93.75 40,79.731 40,62.5 V 28.75 h 2.5 V 62.5 c 0,15.434 12.225,28.066 27.5,28.724 V 28.75 Z M 25,26.25 h 70 v -2.5 H 25 Z"
       style="fill:#333333;fill-opacity:1;fill-rule:nonzero;stroke:none"
       id="path37" /><path
       d="M 537.5,147.5 H 555 v 2.5 h -17.5 z m 17.5,10 H 537.5 V 155 H 555 Z m 0,7.5 h -17.5 v -2.5 H 555 Z m -35,-17.5 h 2.5 v 5 H 520 Z m -5,0 h 2.5 v 5 H 515 Z m 7.5,15 H 520 v -5 h 2.5 z m -5,0 H 515 v -5 h 2.5 z m 5,10 H 520 v -5 h 2.5 z m -5,0 H 515 v -5 h 2.5 z m 12.5,5 h 5 V 175 h 2.5 v 5 H 530 Z m 2.5,-37.5 h 2.5 v 30 h 22.5 v -30 h 2.5 v 32.5 h -27.5 z m 37.5,0 v 46.861 l -25,19.445 V 175 h 2.5 v 26.194 l 20,-15.555 V 140 Z m -42.5,0 v 51.086 L 510,179.419 V 140 h 2.5 v 38.081 l 12.5,8.333 V 140 Z M 505,137.5 h 70 V 135 h -70 z"
       style="fill:#333333;fill-opacity:1;fill-rule:nonzero;stroke:none"
       id="path39" /><path
       d="m 262,367.259 h 2.5 v 5 H 262 Z m 5,0 h 2.5 v 5 H 267 Z m -10,0 h 2.5 v 5 H 257 Z m 7.5,15 H 262 v -5 h 2.5 z m 5,0 H 267 v -5 h 2.5 z m -10,0 H 257 v -5 h 2.5 z m 5,10 H 262 v -5 h 2.5 z m 5,0 H 267 v -5 h 2.5 z m -10,0 H 257 v -5 h 2.5 z m -35,-22.5 H 242 v 2.5 h -17.5 z m 17.5,10 h -17.5 v -2.5 H 242 Z m 0,7.5 h -17.5 v -2.5 H 242 Z m 0,7.5 h -17.5 v -2.5 H 242 Z m 0,7.5 h -17.5 v -2.5 H 242 Z m 0,7.5 h -17.5 v -2.5 H 242 Z m 0,7.5 h -17.5 v -2.5 H 242 Z m 42.5,-57.5 v 40 H 252 v -40 h 2.5 v 37.5 H 272 v -37.5 h 2.5 v 37.5 h 7.5 v -37.5 z m -62.5,62.5 h 22.5 v -62.5 h 2.5 v 62.5 h 12.5 v -20 h 2.5 v 22.5 h -42.5 v -65 h 2.5 z m -5,-65 h 70 v -2.5 h -70 z"
       style="fill:#333333;fill-opacity:1;fill-rule:nonzero;stroke:none"
       id="path41" /><path
       d="m 343,202.5 h 10 V 205 H 343 Z M 368,150 h 2.5 v 5 H 368 Z m 5,0 h 2.5 v 5 H 373 Z m -2.5,15 H 368 v -5 h 2.5 z m 5,0 H 373 v -5 h 2.5 z m -50,-15 h 2.5 v 5 h -2.5 z m -5,0 h 2.5 v 5 h -2.5 z m 7.5,15 h -2.5 v -5 h 2.5 z m -5,0 h -2.5 v -5 h 2.5 z m 32.5,20 h -5 v -2.5 h 5 z m -10,0 h -5 v -2.5 h 5 z m 10,-7.5 h -5 V 175 h 5 z m -10,0 h -5 V 175 h 5 z m 10,-7.5 h -5 v -2.5 h 5 z m -10,0 h -5 v -2.5 h 5 z m 10,-7.5 h -5 V 160 h 5 z m -10,0 h -5 V 160 h 5 z m 5,-10 h 5 v 2.5 h -5 z m -10,0 h 5 v 2.5 h -5 z M 338,195 h 2.5 v 2.5 h 15 V 195 h 2.5 v 5 h -20 z m -7.5,-50 h 2.5 v -5 h 2.5 v 5 h 25 v -5 h 2.5 v 5 h 2.5 v 2.5 h -35 z m -15,-5 h 2.5 v 30 h 12.5 v 2.5 H 313 V 170 h 2.5 z m 50,32.5 V 170 H 378 v -30 h 2.5 v 30 h 2.5 v 2.5 z m -35,20 V 190 h 2.5 v -40 h 2.5 v 40 h 25 v -40 h 2.5 v 40 h 2.5 v 2.5 z m -17.5,-55 h 70 V 135 h -70 z"
       style="fill:#333333;fill-opacity:1;fill-rule:nonzero;stroke:none"
       id="path43" /><path
       d="m 434,295 h -5 v -2.5 h 5 z m 10,0 h -5 v -2.5 h 5 z m 25,-7.5 h -5 V 285 h 5 z m -35,0 h -5 V 285 h 5 z m 0,-7.5 h -5 v -2.5 h 5 z m 0,-7.5 h -5 V 270 h 5 z m 0,-7.5 h -5 v -2.5 h 5 z m -5,-10 h 5 v 2.5 h -5 z m 15,32.5 h -5 V 285 h 5 z m -20,0 h -5 V 285 h 5 z m 45,-7.5 h -5 v -2.5 h 5 z m -10,0 h -5 v -2.5 h 5 z m 10,-7.5 h -5 V 270 h 5 z m -10,0 h -5 V 270 h 5 z m 10,-7.5 h -5 v -2.5 h 5 z m -10,0 h -5 v -2.5 h 5 z m 5,-10 h 5 v 2.5 h -5 z m -10,0 h 5 v 2.5 h -5 z m -10,25 h -5 v -2.5 h 5 z m -20,0 h -5 v -2.5 h 5 z m 20,-7.5 h -5 V 270 h 5 z m -20,0 h -5 V 270 h 5 z m 20,-7.5 h -5 v -2.5 h 5 z m -20,0 h -5 v -2.5 h 5 z m 15,-10 h 5 v 2.5 h -5 z m -20,0 h 5 v 2.5 h -5 z m 55,-5.066 v 48.053 l -22.859,-8.572 0.878,-2.341 19.481,7.306 V 249.934 Z M 449,250 v 63.343 L 414,294.497 V 250 h 2.5 v 43.003 l 30,16.154 V 250 Z m -40,-2.5 h 70 V 245 h -70 z"
       style="fill:#333333;fill-opacity:1;fill-rule:nonzero;stroke:none"
       id="path45" /><path
       d="m 461.5,86.25 v 7.5 H 424 v -7.5 h 2.5 v 5 h 20 v -5 h 2.5 v 5 h 10 v -5 z m -45,-57.5 h 2.5 v 52.5 h 35 v -52.5 h 2.5 v 52.5 h 10 v -52.5 h 2.5 v 55 h -52.5 z m 30,12.5 h 2.5 v 5 h -2.5 z m -7.5,0 h 2.5 v 5 H 439 Z m -7.5,0 h 2.5 v 5 h -2.5 z m -7.5,0 h 2.5 v 5 H 424 Z m 25,15 h -2.5 v -5 h 2.5 z m -7.5,0 H 439 v -5 h 2.5 z m -7.5,0 h -2.5 v -5 h 2.5 z m -7.5,0 H 424 v -5 h 2.5 z m 22.5,10 h -2.5 v -5 h 2.5 z m -7.5,0 H 439 v -5 h 2.5 z m -7.5,0 h -2.5 v -5 h 2.5 z m -7.5,0 H 424 v -5 h 2.5 z m 22.5,10 h -2.5 v -5 h 2.5 z m -7.5,0 H 439 v -5 h 2.5 z m -7.5,0 h -2.5 v -5 h 2.5 z m -7.5,0 H 424 v -5 h 2.5 z m -17.5,-50 h 70 v -2.5 h -70 z"
       style="fill:#333333;fill-opacity:1;fill-rule:nonzero;stroke:none"
       id="path49" /><path
       d="M 85,152.5 V 205 H 55.732 L 37.5,186.768 V 152.5 H 40 v 33.232 L 56.768,202.5 H 65 v -50 h 2.5 v 50 h 15 v -50 z M 60,190 h -5 v -2.5 h 5 z m 17.5,7.5 h -5 V 195 h 5 z m 0,-7.5 h -5 v -2.5 h 5 z m 0,-7.5 h -5 V 180 h 5 z m 0,-7.5 h -5 v -2.5 h 5 z m 0,-7.5 h -5 V 165 h 5 z m -5,-10 h 5 v 2.5 h -5 z m -17.5,0 h 5 v 2.5 h -5 z m -10,0 h 5 v 2.5 h -5 z m 15,10 H 55 V 165 h 5 z m -10,0 H 45 V 165 h 5 z m 10,7.5 h -5 v -2.5 h 5 z m -10,0 h -5 v -2.5 h 5 z m 10,7.5 H 55 V 180 h 5 z m -10,0 H 45 V 180 h 5 z M 60,145 h -2.5 v -5 H 60 Z m -12.5,0 H 45 v -5 h 2.5 z M 25,135 h 70 v 2.5 H 25 Z m 62.5,15 v -2.5 H 85 V 140 h -2.5 v 7.5 h -15 V 140 H 65 v 7.5 H 40 V 140 h -2.5 v 7.5 H 35 v 2.5 z"
       style="fill:#333333;fill-opacity:1;fill-rule:nonzero;stroke:none"
       id="path53" /><path
       d="M 562.5,272.5 H 560 V 265 h 2.5 z m -7.5,0 h -2.5 V 265 h 2.5 z m -7.5,0 H 545 V 265 h 2.5 z m -15,-22.5 v 19.268 l -6.25,6.25 -6.25,-6.25 V 250 h 2.5 v 18.232 l 3.75,3.75 3.75,-3.75 V 250 Z m 32.5,35 h -20 v -2.5 h 20 z m -57.655,6.114 1.898,-1.627 3.257,3.8 V 250 h 2.5 v 46.204 l 11.25,13.125 11.25,-13.125 V 250 h 2.5 v 27.5 h 27.5 V 250 h 2.5 v 27.5 h 2.5 V 280 H 540 v 13.287 l 3.257,-3.8 1.898,1.627 -18.905,22.057 z M 525,297.5 V 295 h -2.5 v -2.5 h 2.5 v -5 h 2.5 v 5 h 2.5 v 2.5 h -2.5 v 2.5 z m -20,-50 h 70 V 245 h -70 z"
       style="fill:#333333;fill-opacity:1;fill-rule:nonzero;stroke:none"
       id="path55" /><path
       d="m 182.25,175 h 10 v 2.5 h -10 z m -3.75,7.5 c 3.446,0 6.25,3.925 6.25,8.75 0,4.825 -2.804,8.75 -6.25,8.75 -3.446,0 -6.25,-3.925 -6.25,-8.75 0,-4.825 2.804,-8.75 6.25,-8.75 m 1.25,-2.372 V 172.5 h -2.5 v 7.628 c -4.233,0.784 -7.5,5.466 -7.5,11.122 0,6.203 3.925,11.25 8.75,11.25 4.825,0 8.75,-5.047 8.75,-11.25 0,-5.656 -3.267,-10.338 -7.5,-11.122 m -5,-2.628 h -25 V 175 h 25 z M 122.25,145 h 7.5 v 2.5 h -7.5 z m 62.5,17.5 h -25 V 160 h 25 z m -2.5,-10 h -20 v -5 h 20 z m 2.5,-5 h 7.5 V 145 h -55 v 2.5 h 22.5 v 10 h 2.5 V 155 h 20 v 2.5 h 2.5 z m -62.5,31.25 c 0,-10.339 5.047,-18.75 11.25,-18.75 6.203,0 11.25,8.411 11.25,18.75 0,10.339 -5.047,18.75 -11.25,18.75 -6.203,0 -11.25,-8.411 -11.25,-18.75 m -2.5,0 c 0,11.718 6.168,21.25 13.75,21.25 7.582,0 13.75,-9.532 13.75,-21.25 0,-11.065 -5.503,-20.172 -12.5,-21.152 V 140 h -2.5 v 17.598 c -6.997,0.98 -12.5,10.087 -12.5,21.152 m 2.5,-41.25 h 70 V 135 h -70 z"
       style="fill:#333333;fill-opacity:1;fill-rule:nonzero;stroke:none"
       id="path57" /><path
       d="m 176,49.8359 v 11.995 l -6.628,4.419 H 142.628 L 136,61.8309 v -11.995 l 5.872,3.914 h 28.256 z m 7.5,13.914 h 7.5 v -2.5 h -7.5 v -10 h 7.5 v -2.5 h -10 v 20 h -2.5 v -40 H 176 v 18.081 l -6.628,4.419 H 142.628 L 136,46.8309 v -18.081 h -2.5 v 40 H 131 v -20 h -10 v 2.5 h 7.5 v 10 H 121 v 2.5 h 7.5 v 7.5 h 7.5 v -6.415 l 5.872,3.915 h 28.256 L 176,64.8359 v 6.414 h 7.5 z m -62.5,-37.5 h 70 v -2.5 h -70 z"
       style="fill:#333333;fill-opacity:1;fill-rule:nonzero;stroke:none"
       id="path61" /><path
       d="m 350.5,292.5 h -5 V 290 h 5 z m 2.5,-5 h -10 v 7.5 h 10 z M 365.5,250 v 27.5 h -35 V 250 h 2.5 v 25 h 13.75 v -25 h 2.5 v 25 H 363 v -25 z m 7.5,0 v 33.797 l 3.59,-4.308 1.921,1.601 -13.432,16.118 -17.079,10.51 -17.079,-10.51 -13.432,-16.118 1.921,-1.601 3.59,4.308 V 250 h 2.5 v 36.797 l 7.079,8.495 15.421,9.49 15.421,-9.49 7.079,-8.495 V 250 Z m -60,-2.5 h 70 V 245 h -70 z"
       style="fill:#333333;fill-opacity:1;fill-rule:nonzero;stroke:none"
       id="path63" /><path
       d="m 143.5,252.5 h 25 v 2.5 h -25 z M 166,275 h -20 v -2.5 h 20 z m 2.5,-5 h -25 v 7.5 h 25 z m 7.5,-20 v 35 h -40 v -35 h 2.5 v 32.5 h 35 V 250 Z m 7.5,0 v 37.649 l 3.945,-3.156 1.562,1.952 -33.007,26.406 -33.007,-26.406 1.562,-1.952 3.945,3.156 V 250 h 2.5 v 39.649 l 25,20 25,-20 V 250 Z m 7.5,-5 h -70 v 2.5 h 70 z"
       style="fill:#333333;fill-opacity:1;fill-rule:nonzero;stroke:none"
       id="path65" /><path
       d="m 26.25,247.5 h 70 V 245 h -70 z m 57.5,2.5 v 15 h -5 v -15 h -2.5 v 17.5 h 10 V 250 Z m -30,20 h 5 v -10 h -5 z m -2.5,-12.5 h 10 v 15 h -10 z M 38.75,270 h 5 v -10 h -5 z m -2.5,-12.5 h 10 v 15 h -10 z m 22.5,25 h -5 v 5 h 5 z m 2.5,7.5 h -10 v -10 h 10 z m -17.5,-7.5 h -5 v 5 h 5 z m 2.5,7.5 h -10 v -10 h 10 z m 47.5,-15 h -25 v 7.5 h 25 z m -25,17.774 3.901,-3.285 1.61,1.912 -25.511,21.483 -25.511,-21.483 1.61,-1.912 3.901,3.285 V 250 h 2.5 v 44.879 l 17.5,14.737 17.5,-14.737 V 250 h 2.5 v 22.5 h 22.5 V 250 h 2.5 v 22.5 h 2.5 V 285 h -27.5 z"
       style="fill:#333333;fill-opacity:1;fill-rule:nonzero;stroke:none"
       id="path67" /><path
       d="m 572.5,419.759 h -65 v -2.5 h 65 z m -55,-55 h 25 v 2.5 h -25 z m 22.5,22.5 h -20 v -15 h 20 z m 2.5,-17.5 h -25 v 20 h 25 z m 20,-10 v 25 h -15 v -25 h 2.5 v 22.5 h 10 v -22.5 z m 10,52.5 h -65 v -15 h 5 v 10 h 2.5 v -10 h 5 v 10 h 2.5 v -10 h 5 v 10 h 2.5 v -10 h 5 v 10 h 2.5 v -10 h 5 v 10 h 2.5 v -10 h 5 v 10 h 2.5 v -10 h 5 v 10 h 2.5 v -10 h 5 v 10 h 2.5 v -10 h 5 z m 2.5,2.5 v -20 h -5 v -35 h -2.5 v 35 h -55 v -35 H 510 v 35 h -5 v 20 z m -70,-57.5 h 70 v -2.5 h -70 z"
       style="fill:#333333;fill-opacity:1;fill-rule:nonzero;stroke:none"
       id="path69" /><path
       d="M 451.5,364.759 H 449 v -5 h 2.5 z m 7.5,26.553 v 12.324 l -2.5,-2.5 v -7.324 z m -27.5,-8.105 -2.5,-2.5 v -5.948 h 2.5 z m 12.5,33.613 5.504,-5.004 1.77,1.77 -7.274,6.613 -3.569,-3.245 1.769,-1.77 z m -11.06,-10.054 -1.769,1.77 -2.171,-1.974 v -8.179 l 2.5,2.5 v 4.574 z m 2.221,-9.292 -12.375,-12.374 1.769,-1.768 12.374,12.374 z m -8.839,22.981 12.374,-12.374 1.769,1.767 -12.375,12.375 z m 37.123,-1.768 -12.374,-12.374 1.768,-1.768 12.375,12.374 z m -1.767,-37.123 -12.374,12.374 -1.769,-1.767 12.375,-12.375 z m -42.427,3.536 15.91,15.909 3.535,-3.535 3.536,3.535 c 0,0 -19.271,19.272 -21.212,21.214 l 1.767,1.767 1.768,-1.767 3.535,3.536 15.91,-15.911 -3.536,-3.535 3.536,-3.536 21.213,21.213 1.767,-1.767 -1.767,-1.768 3.536,-3.536 -15.91,-15.909 -3.535,3.535 -3.536,-3.536 21.212,-21.213 -1.767,-1.767 -1.768,1.767 -3.535,-3.536 -15.91,15.911 3.536,3.535 -3.536,3.536 -21.213,-21.213 -1.767,1.767 1.767,1.768 z M 459,359.759 v 10 h 2.5 v 2.5 h -35 v -2.5 h 2.5 v -10 h 2.5 v 10 h 25 v -10 z m -50,-2.5 h 70 v -2.5 h -70 z"
       style="fill:#333333;fill-opacity:1;fill-rule:nonzero;stroke:none"
       id="path71" /><path
       d="m 353,91.25 h 10 v 2.5 h -10 z m -25.625,-5 -5.625,-7.5 h 52.5 l -5.625,7.5 z m -1.25,2.5 h 43.75 l 9.375,-12.5 H 373 v -20 h -2.5 v 20 h -45 v -20 H 323 v 20 h -6.25 z M 350.5,71.25 h -5 v -7.5 h 5 z m 2.5,-10 h -10 v 12.5 h 10 z m -17.5,10 h -5 v -7.5 h 5 z m 2.5,-10 h -10 v 12.5 h 10 z m 27.5,10 h -5 v -7.5 h 5 z m 2.5,-10 h -10 v 12.5 h 10 z m -37.5,-25 h 5 v 7.5 h -5 z m -2.5,10 h 10 v -12.5 h -10 z m 32.5,-10 h 5 v 7.5 h -5 z m -2.5,10 h 10 v -12.5 h -10 z m -5,-17.5 v 15 h -10 v -15 h 2.5 v 12.5 h 5 v -12.5 z m 20,0 v 22.5 h 2.5 v 2.5 h -55 v -2.5 h 2.5 v -22.5 h 2.5 v 22.5 h 45 v -22.5 z m -60,-2.5 h 70 v -2.5 h -70 z"
       style="fill:#333333;fill-opacity:1;fill-rule:nonzero;stroke:none"
       id="path73" /><path
       d="m 267,155 h -2.5 v -5 h 2.5 z m -5,20 h -2.5 v -5 h 2.5 z m -20,-27.5 h -5 V 145 h 5 z m 6.25,7.5 v 2.5 h -15.518 l -7.5,-7.5 h 4.268 v -10 h 2.5 v 10 h 15 v 2.5 h -15.732 l 2.5,2.5 z m 26.701,44.309 -11.677,5.838 -11.701,-5.836 1.116,-2.238 1.791,0.894 0.026,-5.473 2.5,0.012 -0.031,6.705 6.298,3.142 6.248,-3.124 0.031,-6.735 2.5,0.012 -0.025,5.47 1.806,-0.903 z m -23.089,-59.433 5.011,47.624 h 12.754 l 5.011,-47.624 2.486,0.262 -4.983,47.362 H 274.5 V 190 H 252 v -2.5 h 2.359 l -4.983,-47.362 z M 217,137.5 h 70 V 135 h -70 z"
       style="fill:#333333;fill-opacity:1;fill-rule:nonzero;stroke:none"
       id="path75" /><path
       d="m 340.5,362.259 h 5 v 2.5 h -5 z m 10,0 h 5 v 2.5 h -5 z m 7.5,0 h 5 v 2.5 h -5 z m -25,0 h 5 v 2.5 h -5 z m 12.5,10 h -5 v -2.5 h 5 z m 10,0 h -5 v -2.5 h 5 z m 7.5,0 h -5 v -2.5 h 5 z m -25,0 h -5 v -2.5 h 5 z m 17.5,45 h -5 v -2.5 h 5 z m -10,0 h -5 v -2.5 h 5 z m 0,-32.5 h 5 v 2.5 h -5 z m 5,10 h -5 v -2.5 h 5 z m 0,7.5 h -5 v -2.5 h 5 z m 10,0 h -5 v -2.5 h 5 z m -20,0 h -5 v -2.5 h 5 z m 20,-7.5 h -5 v -2.5 h 5 z m -20,0 h -5 v -2.5 h 5 z m 15,-10 h 5 v 2.5 h -5 z m -20,0 h 5 v 2.5 h -5 z m 0,27.5 h 2.5 v 10 h 20 v -10 h 2.5 v 10 h 2.5 v 2.5 h -30 v -2.5 h 2.5 z m -5,-30 h 2.5 v 25 h 30 v -25 h 2.5 v 25 h 2.5 v 2.5 h -40 v -2.5 h 2.5 z m -2.5,-22.5 h 2.5 v 17.5 h 35 v -17.5 h 2.5 v 17.5 h 2.5 v 2.5 h -45 v -2.5 h 2.5 z m -15,-2.5 h 70 v -2.5 h -70 z"
       style="fill:#333333;fill-opacity:1;fill-rule:nonzero;stroke:none"
       id="path77" /><path
       d="M 188.5,412.259 H 181 v -2.5 h 7.5 z m -5,-5 h -5 v -2.5 h 5 z m -35,12.5 H 141 v -2.5 h 7.5 z m -7.5,-5 h -5 v -2.5 h 5 z m -7.5,-7.5 h 2.5 v -7.5 h 2.5 v 10 H 131 v -10 h 2.5 z m 32.5,-42.5 h 5 v 2.5 h -5 z m -7.5,0 h 5 v 2.5 h -5 z m 12.5,10 h -5 v -2.5 h 5 z m -7.5,0 h -5 v -2.5 h 5 z m -12.5,-10 h 5 v 2.5 h -5 z m -7.5,0 h 5 v 2.5 h -5 z m 12.5,10 h -5 v -2.5 h 5 z m -7.5,0 h -5 v -2.5 h 5 z m -12.5,-10 h 5 v 2.5 h -5 z m -7.5,0 h 5 v 2.5 h -5 z m 12.5,10 h -5 v -2.5 h 5 z m -7.5,0 h -5 v -2.5 h 5 z m 7.5,7.5 h -5 v -2.5 h 5 z m -7.5,0 h -5 v -2.5 h 5 z m 7.5,7.5 h -5 v -2.5 h 5 z m -7.5,0 h -5 v -2.5 h 5 z m 42.5,10 h 2.5 v -15 h 2.5 v 17.5 h -7.5 v -17.5 h 2.5 z m -10,17.5 h 2.5 v -32.5 h 2.5 v 35 h -7.5 v -35 h 2.5 z m -40,-22.5 h 17.5 v -15 H 176 v -20 h 2.5 v 20 h 7.5 v -20 h 2.5 v 22.5 H 146 v 12.5 h 10 v -10 h 2.5 v 12.5 h -35 v -37.5 h 2.5 z m 65,-40 h -70 v 2.5 h 70 z"
       style="fill:#333333;fill-opacity:1;fill-rule:nonzero;stroke:none"
       id="path79" /><path
       d="M 449,167.5 H 439 V 165 h 10 z m -30,-15 h 2.5 V 160 H 419 Z m 50,7.5 h -2.5 v -7.5 h 2.5 z m -57.5,-20 h 2.5 v 25 h 10 v 2.5 H 409 V 165 h 2.5 z M 464,167.5 V 165 h 10 v -25 h 2.5 v 25 h 2.5 v 2.5 z m -25,-20 h 2.5 v 10 h 5 v -10 H 449 V 160 H 439 Z M 460.397,180 444,187.379 427.603,180 Z M 464,177.5 H 424 V 175 h 40 z m 2.491,2.5 4.162,-1.873 -1.026,-2.28 -3.127,1.407 V 172.5 h -5 v -25 H 459 v 25 h -2.5 v -25 H 454 v 25 h -20 v -25 h -2.5 v 25 H 429 v -25 h -2.5 v 25 h -5 v 4.754 l -3.127,-1.407 -1.026,2.28 L 444,190.121 Z M 419,140 h 2.5 v 2.5 h 45 V 140 h 2.5 v 5 h -50 z m -10,-2.5 h 70 V 135 h -70 z"
       style="fill:#333333;fill-opacity:1;fill-rule:nonzero;stroke:none"
       id="path81" /></g></svg>
