<svg width="93.3333" height="93.3333" xmlns="http://www.w3.org/2000/svg"><path d="M53.3333 3.3333h13.3334V0H53.3333zM19.1667 10l-7.5 10h70l-7.5-10zM17.5 6.6667h58.3333l12.5 16.6666H80V50h-3.3333V23.3333h-60V50h-3.3334V23.3333H5zM50 30h-6.6667v10H50zm3.3333 13.3333H40V26.6667h13.3333zM30 30h-6.6667v10H30zm3.3333 13.3333H20V26.6667h13.3333zM70 30h-6.6667v10H70zm3.3333 13.3333H60V26.6667h13.3333zm-50 33.3334H30v-10h-6.6667zM20 63.3333h13.3333V80H20zm43.3333 13.3334H70v-10h-6.6667zM60 63.3333h13.3333V80H60zm-6.6667 23.3334v-20H40v20h3.3333V70H50v16.6667zm26.6667 0v-30h3.3333v-3.3334H10v3.3334h3.3333v30h3.3334v-30h60v30zM0 90h93.3333v3.3333H0z" fill="#333"/></svg>